<svg width="512" height="584" viewBox="0 0 512 584" fill="none" xmlns="http://www.w3.org/2000/svg">
<path fill-rule="evenodd" clip-rule="evenodd" d="M256 512C397.385 512 512 397.385 512 256C512 114.615 397.385 0 256 0C114.615 0 0 114.615 0 256C0 326.792 28.7349 390.873 75.1773 437.216L29.8483 583.882L175.473 499.078C200.794 507.462 227.867 512 256 512Z" fill="url(#paint0_linear)"/>
<mask id="mask0" mask-type="alpha" maskUnits="userSpaceOnUse" x="56" y="27" width="399" height="419">
<ellipse rx="199.207" ry="209.157" transform="matrix(-1 0 0 1 255.614 236.637)" fill="#C4C4C4"/>
</mask>
<g mask="url(#mask0)">
<path d="M265.142 346.302C242.454 357.241 231.69 358.804 207.843 353.769L230.365 370.611L240.633 434.16L243.448 368.875L265.142 346.302ZM385.373 196.111C390.176 203.924 391.169 209.48 386.035 217.294L306.71 336.579L322.277 445.794H179.193V352.553L139.778 269.036C134.644 258.271 133.651 251.326 133.651 227.538L180.849 278.76L220.76 257.229L232.849 324.772C245.601 262.438 273.754 224.413 317.971 204.792L305.385 179.442C254.378 208.091 235.499 159.127 243.614 155.134L323.105 115.198C329.729 111.899 333.704 112.073 337.761 118.845L385.373 196.111ZM148.058 172.497L203.206 236.22C206.683 240.213 183.995 264.522 180.517 261.396L122.389 206.702C117.421 202.014 143.918 167.635 148.058 172.497ZM240.467 200.452C243.448 204.619 211.486 234.136 208.671 230.837L149.549 162.079C143.422 154.96 182.836 117.976 186.893 123.793L240.467 200.452ZM238.149 83.0764L266.964 133.777L240.964 148.015C234.34 151.661 232.352 161.905 238.48 185.172L192.11 114.504C187.307 106.864 234.008 75.7838 238.149 83.0764V83.0764ZM292.302 58.4206L318.633 108.253L274.416 130.131L247.091 82.7291C242.62 74.9157 288.162 50.6072 292.302 58.4206Z" fill="white"/>
</g>
<defs>
<linearGradient id="paint0_linear" x1="86.0001" y1="89" x2="431" y2="438" gradientUnits="userSpaceOnUse">
<stop stop-color="#72C94A"/>
<stop offset="1" stop-color="#41A000"/>
</linearGradient>
</defs>
</svg>
