<svg width="1534" height="578" viewBox="0 0 1534 578" fill="none" xmlns="http://www.w3.org/2000/svg">
<path fill-rule="evenodd" clip-rule="evenodd" d="M370 354C467.754 354 547 274.754 547 177C547 79.2456 467.754 0 370 0C272.246 0 193 79.2456 193 177C193 225.946 212.867 270.252 244.978 302.294L213.637 403.699L314.323 345.066C331.83 350.862 350.549 354 370 354Z" fill="url(#paint0_linear)"/>
<mask id="mask0" mask-type="alpha" maskUnits="userSpaceOnUse" x="232" y="19" width="276" height="290">
<ellipse rx="137.733" ry="144.612" transform="matrix(-1 0 0 1 369.733 163.612)" fill="#C4C4C4"/>
</mask>
<g mask="url(#mask0)">
<path d="M376.321 239.436C360.635 246.999 353.192 248.079 336.704 244.598L352.276 256.243L359.375 300.181L361.322 255.042L376.321 239.436ZM459.449 135.592C462.77 140.994 463.457 144.836 459.907 150.238L405.061 232.713L415.824 308.224H316.895V243.757L289.644 186.013C286.094 178.57 285.407 173.768 285.407 157.321L318.04 192.736L345.635 177.85L353.993 224.549C362.81 181.451 382.275 155.16 412.847 141.595L404.145 124.067C368.879 143.876 355.825 110.022 361.436 107.26L416.397 79.6488C420.977 77.3679 423.725 77.4879 426.53 82.1699L459.449 135.592ZM295.369 119.265L333.498 163.324C335.902 166.085 320.216 182.892 317.811 180.731L277.621 142.915C274.186 139.674 292.506 115.904 295.369 119.265ZM359.261 138.593C361.322 141.475 339.223 161.883 337.276 159.602L296.399 112.062C292.163 107.14 319.414 81.5696 322.219 85.5913L359.261 138.593ZM357.658 57.4395L377.581 92.4942L359.604 102.338C355.024 104.859 353.65 111.942 357.887 128.029L325.826 79.1686C322.506 73.8864 354.795 52.3974 357.658 57.4395V57.4395ZM395.1 40.3924L413.305 74.8468L382.733 89.9731L363.841 57.1994C360.749 51.7972 392.237 34.9901 395.1 40.3924Z" fill="white"/>
</g>
<path d="M91.68 408.96C92.64 400 98.96 395.52 110.64 395.52C116.88 395.52 121.52 396 124.56 396.96C127.6 397.92 129.68 399.6 130.8 402C132.08 404.4 132.8 406.56 132.96 408.48C133.28 410.24 133.44 412.96 133.44 416.64V500.64C133.44 504.32 133.28 507.12 132.96 509.04C132.8 510.8 132.16 512.88 131.04 515.28C128.8 519.44 123.28 521.52 114.48 521.52C105.84 521.52 100 520.48 96.96 518.4C94.08 516.16 92.4 512.96 91.92 508.8C86 517.28 76.08 521.52 62.16 521.52C48.4 521.52 35.6 515.2 23.76 502.56C11.92 489.92 6 475.28 6 458.64C6 441.84 11.92 427.2 23.76 414.72C35.76 402.08 48.88 395.76 63.12 395.76C68.56 395.76 73.52 396.72 78 398.64C82.48 400.56 85.6 402.4 87.36 404.16C89.12 405.76 90.56 407.36 91.68 408.96ZM48 458.88C48 464.16 50.08 468.96 54.24 473.28C58.4 477.44 63.44 479.52 69.36 479.52C75.28 479.52 80.16 477.36 84 473.04C88 468.72 90 464 90 458.88C90 453.6 88.08 448.72 84.24 444.24C80.56 439.76 75.52 437.52 69.12 437.52C62.88 437.52 57.76 439.76 53.76 444.24C49.92 448.72 48 453.6 48 458.88ZM152.569 357.12C152.569 353.44 152.649 350.72 152.809 348.96C153.129 347.04 153.849 344.88 154.969 342.48C157.209 338.16 163.449 336 173.689 336C183.449 336 189.529 338.16 191.929 342.48C193.209 344.88 193.929 347.04 194.089 348.96C194.409 350.88 194.569 353.68 194.569 357.36V468.48C194.569 474.24 195.049 477.92 196.009 479.52C196.969 480.96 199.049 481.68 202.249 481.68C205.609 481.68 207.849 481.84 208.969 482.16C210.089 482.32 211.449 482.96 213.049 484.08C216.249 486.16 217.849 491.84 217.849 501.12C217.849 511.2 216.249 517.36 213.049 519.6C208.889 522.48 198.969 522.96 183.289 521.04C170.969 519.44 162.969 515.36 159.289 508.8C154.809 500.96 152.569 488.48 152.569 471.36V357.12ZM313.164 408.96C314.124 400 320.444 395.52 332.124 395.52C338.364 395.52 343.004 396 346.044 396.96C349.084 397.92 351.164 399.6 352.284 402C353.564 404.4 354.284 406.56 354.444 408.48C354.764 410.24 354.924 412.96 354.924 416.64V500.64C354.924 504.32 354.764 507.12 354.444 509.04C354.284 510.8 353.644 512.88 352.524 515.28C350.284 519.44 344.764 521.52 335.964 521.52C327.324 521.52 321.484 520.48 318.444 518.4C315.564 516.16 313.884 512.96 313.404 508.8C307.484 517.28 297.564 521.52 283.644 521.52C269.884 521.52 257.084 515.2 245.244 502.56C233.404 489.92 227.484 475.28 227.484 458.64C227.484 441.84 233.404 427.2 245.244 414.72C257.244 402.08 270.364 395.76 284.604 395.76C290.044 395.76 295.004 396.72 299.484 398.64C303.964 400.56 307.084 402.4 308.844 404.16C310.604 405.76 312.044 407.36 313.164 408.96ZM269.484 458.88C269.484 464.16 271.564 468.96 275.724 473.28C279.884 477.44 284.924 479.52 290.844 479.52C296.764 479.52 301.644 477.36 305.484 473.04C309.484 468.72 311.484 464 311.484 458.88C311.484 453.6 309.564 448.72 305.724 444.24C302.044 439.76 297.004 437.52 290.604 437.52C284.364 437.52 279.244 439.76 275.244 444.24C271.404 448.72 269.484 453.6 269.484 458.88ZM374.053 556.32V416.16C374.053 412.48 374.133 409.76 374.293 408C374.613 406.24 375.333 404.24 376.453 402C378.693 397.68 384.053 395.52 392.533 395.52C401.013 395.52 406.693 396.64 409.573 398.88C412.613 400.96 414.373 404.08 414.853 408.24C420.933 399.92 430.453 395.76 443.413 395.76C456.533 395.76 468.933 401.92 480.613 414.24C492.293 426.56 498.133 440.88 498.133 457.2C498.133 473.52 492.293 487.84 480.613 500.16C469.093 512.48 456.773 518.64 443.653 518.64C430.533 518.64 421.013 514.96 415.093 507.6V556.08C415.093 559.76 414.933 562.48 414.613 564.24C414.453 566 413.733 568 412.453 570.24C411.333 572.64 409.333 574.32 406.453 575.28C403.573 576.24 399.653 576.72 394.693 576.72C389.733 576.72 385.733 576.24 382.693 575.28C379.813 574.32 377.733 572.72 376.453 570.48C375.333 568.24 374.613 566.24 374.293 564.48C374.133 562.72 374.053 560 374.053 556.32ZM421.573 443.28C417.893 447.6 416.053 452.32 416.053 457.44C416.053 462.56 417.893 467.28 421.573 471.6C425.413 475.76 430.213 477.84 435.973 477.84C441.893 477.84 446.853 475.76 450.853 471.6C455.013 467.44 457.093 462.72 457.093 457.44C457.093 452.16 455.173 447.44 451.333 443.28C447.493 438.96 442.453 436.8 436.213 436.8C430.133 436.8 425.253 438.96 421.573 443.28ZM584.837 438L569.237 437.04V470.16C569.237 474.48 569.877 477.6 571.157 479.52C572.597 481.44 575.157 482.4 578.837 482.4C582.677 482.4 585.557 482.56 587.477 482.88C589.557 483.04 591.717 483.76 593.957 485.04C597.637 487.12 599.477 492.48 599.477 501.12C599.477 511.2 597.237 517.36 592.757 519.6C590.357 520.72 588.197 521.44 586.277 521.76C584.517 521.92 581.877 522 578.357 522C561.717 522 549.077 518.24 540.437 510.72C531.797 503.2 527.477 490.48 527.477 472.56V437.04C524.437 437.52 521.157 437.76 517.637 437.76C514.117 437.76 511.157 436.4 508.757 433.68C506.517 430.96 505.397 426.32 505.397 419.76C505.397 413.2 505.797 408.48 506.597 405.6C507.397 402.56 508.517 400.4 509.957 399.12C512.517 397.04 515.717 396 519.557 396L527.477 396.96V372.24C527.477 368.56 527.557 365.84 527.717 364.08C528.037 362.32 528.837 360.4 530.117 358.32C532.197 354.32 538.357 352.32 548.597 352.32C559.477 352.32 565.957 355.28 568.037 361.2C568.837 363.76 569.237 367.84 569.237 373.44V396.96C576.277 396.32 581.557 396 585.077 396C588.757 396 591.477 396.16 593.237 396.48C595.157 396.64 597.317 397.36 599.717 398.64C603.877 400.72 605.957 406.88 605.957 417.12C605.957 427.2 603.797 433.36 599.477 435.6C597.077 436.72 594.917 437.44 592.997 437.76C591.237 437.92 588.517 438 584.837 438ZM615.609 458.88C615.609 439.68 622.329 423.84 635.769 411.36C649.209 398.88 664.569 392.64 681.849 392.64C699.129 392.64 714.409 398.88 727.689 411.36C740.969 423.68 747.609 439.44 747.609 458.64C747.609 471.92 744.169 483.76 737.289 494.16C730.409 504.4 722.009 512 712.089 516.96C702.329 521.76 692.169 524.16 681.609 524.16C671.049 524.16 660.809 521.6 650.889 516.48C640.969 511.2 632.569 503.52 625.689 493.44C618.969 483.2 615.609 471.68 615.609 458.88ZM665.769 476.16C670.889 480 676.089 481.92 681.369 481.92C686.649 481.92 691.929 479.92 697.209 475.92C702.489 471.92 705.129 466 705.129 458.16C705.129 450.32 702.649 444.48 697.689 440.64C692.729 436.8 687.369 434.88 681.609 434.88C675.849 434.88 670.489 436.88 665.529 440.88C660.569 444.88 658.089 450.8 658.089 458.64C658.089 466.32 660.649 472.16 665.769 476.16ZM763.116 556.32V416.16C763.116 412.48 763.196 409.76 763.356 408C763.676 406.24 764.396 404.24 765.516 402C767.756 397.68 773.116 395.52 781.596 395.52C790.076 395.52 795.756 396.64 798.636 398.88C801.676 400.96 803.436 404.08 803.916 408.24C809.996 399.92 819.516 395.76 832.476 395.76C845.596 395.76 857.996 401.92 869.676 414.24C881.356 426.56 887.196 440.88 887.196 457.2C887.196 473.52 881.356 487.84 869.676 500.16C858.156 512.48 845.836 518.64 832.716 518.64C819.596 518.64 810.076 514.96 804.156 507.6V556.08C804.156 559.76 803.996 562.48 803.676 564.24C803.516 566 802.796 568 801.516 570.24C800.396 572.64 798.396 574.32 795.516 575.28C792.636 576.24 788.716 576.72 783.756 576.72C778.796 576.72 774.796 576.24 771.756 575.28C768.876 574.32 766.796 572.72 765.516 570.48C764.396 568.24 763.676 566.24 763.356 564.48C763.196 562.72 763.116 560 763.116 556.32ZM810.636 443.28C806.956 447.6 805.116 452.32 805.116 457.44C805.116 462.56 806.956 467.28 810.636 471.6C814.476 475.76 819.276 477.84 825.036 477.84C830.956 477.84 835.916 475.76 839.916 471.6C844.076 467.44 846.156 462.72 846.156 457.44C846.156 452.16 844.236 447.44 840.396 443.28C836.556 438.96 831.516 436.8 825.276 436.8C819.196 436.8 814.316 438.96 810.636 443.28ZM902.803 357.12C902.803 353.44 902.883 350.72 903.043 348.96C903.363 347.04 904.083 344.88 905.203 342.48C907.443 338.16 913.683 336 923.923 336C933.683 336 939.763 338.16 942.163 342.48C943.443 344.88 944.163 347.04 944.323 348.96C944.643 350.88 944.803 353.68 944.803 357.36V468.48C944.803 474.24 945.283 477.92 946.243 479.52C947.203 480.96 949.283 481.68 952.483 481.68C955.843 481.68 958.083 481.84 959.203 482.16C960.323 482.32 961.683 482.96 963.283 484.08C966.483 486.16 968.083 491.84 968.083 501.12C968.083 511.2 966.483 517.36 963.283 519.6C959.123 522.48 949.203 522.96 933.523 521.04C921.203 519.44 913.203 515.36 909.523 508.8C905.043 500.96 902.803 488.48 902.803 471.36V357.12ZM981.319 416.64C981.319 412.96 981.399 410.24 981.559 408.48C981.879 406.56 982.599 404.4 983.719 402C985.959 397.84 992.199 395.76 1002.44 395.76C1010.12 395.76 1015.56 397.12 1018.76 399.84C1021.48 402.08 1022.92 405.52 1023.08 410.16C1023.24 411.76 1023.32 414.08 1023.32 417.12V501.12C1023.32 504.8 1023.16 507.6 1022.84 509.52C1022.68 511.28 1021.96 513.36 1020.68 515.76C1018.6 519.92 1012.44 522 1002.2 522C992.119 522 985.959 519.84 983.719 515.52C982.599 513.12 981.879 511.04 981.559 509.28C981.399 507.52 981.319 504.72 981.319 500.88V416.64ZM1020.68 372.24C1019.56 374.48 1017.48 376.08 1014.44 377.04C1011.4 378 1007.32 378.48 1002.2 378.48C997.239 378.48 993.239 378 990.199 377.04C987.159 376.08 984.999 374.4 983.719 372C982.599 369.6 981.879 367.52 981.559 365.76C981.399 363.84 981.319 361.04 981.319 357.36C981.319 353.68 981.399 350.96 981.559 349.2C981.879 347.28 982.599 345.2 983.719 342.96C985.959 338.64 992.199 336.48 1002.44 336.48C1012.52 336.48 1018.6 338.64 1020.68 342.96C1021.96 345.36 1022.68 347.52 1022.84 349.44C1023.16 351.2 1023.32 353.92 1023.32 357.6C1023.32 361.28 1023.16 364.08 1022.84 366C1022.68 367.76 1021.96 369.84 1020.68 372.24ZM1169.93 398.4C1178.25 403.36 1182.41 408.64 1182.41 414.24C1182.41 417.44 1180.81 421.84 1177.61 427.44L1127.93 512.64C1126.33 515.36 1123.77 517.84 1120.25 520.08C1116.73 522.16 1113.21 523.2 1109.69 523.2C1106.33 523.2 1103.05 522.4 1099.85 520.8C1096.81 519.04 1094.65 517.28 1093.37 515.52L1091.21 512.88L1041.29 427.44C1038.09 422.16 1036.49 417.84 1036.49 414.48C1036.49 408.72 1040.65 403.36 1048.97 398.4C1055.05 394.88 1059.85 393.12 1063.37 393.12C1066.89 393.12 1069.61 394.24 1071.53 396.48C1073.61 398.56 1075.77 401.76 1078.01 406.08L1109.45 466.56L1140.89 406.08C1142.65 403.04 1143.93 400.88 1144.73 399.6C1145.69 398.16 1147.13 396.8 1149.05 395.52C1150.97 394.08 1153.53 393.36 1156.73 393.36C1159.93 393.36 1164.33 395.04 1169.93 398.4ZM1195.54 416.64C1195.54 412.96 1195.62 410.24 1195.78 408.48C1196.1 406.56 1196.82 404.4 1197.94 402C1200.18 397.84 1206.42 395.76 1216.66 395.76C1224.34 395.76 1229.78 397.12 1232.98 399.84C1235.7 402.08 1237.14 405.52 1237.3 410.16C1237.46 411.76 1237.54 414.08 1237.54 417.12V501.12C1237.54 504.8 1237.38 507.6 1237.06 509.52C1236.9 511.28 1236.18 513.36 1234.9 515.76C1232.82 519.92 1226.66 522 1216.42 522C1206.34 522 1200.18 519.84 1197.94 515.52C1196.82 513.12 1196.1 511.04 1195.78 509.28C1195.62 507.52 1195.54 504.72 1195.54 500.88V416.64ZM1234.9 372.24C1233.78 374.48 1231.7 376.08 1228.66 377.04C1225.62 378 1221.54 378.48 1216.42 378.48C1211.46 378.48 1207.46 378 1204.42 377.04C1201.38 376.08 1199.22 374.4 1197.94 372C1196.82 369.6 1196.1 367.52 1195.78 365.76C1195.62 363.84 1195.54 361.04 1195.54 357.36C1195.54 353.68 1195.62 350.96 1195.78 349.2C1196.1 347.28 1196.82 345.2 1197.94 342.96C1200.18 338.64 1206.42 336.48 1216.66 336.48C1226.74 336.48 1232.82 338.64 1234.9 342.96C1236.18 345.36 1236.9 347.52 1237.06 349.44C1237.38 351.2 1237.54 353.92 1237.54 357.6C1237.54 361.28 1237.38 364.08 1237.06 366C1236.9 367.76 1236.18 369.84 1234.9 372.24ZM1327.03 395.52C1343.03 395.52 1356.31 401.68 1366.87 414C1377.59 426.16 1382.95 441.04 1382.95 458.64V500.88C1382.95 504.56 1382.79 507.36 1382.47 509.28C1382.31 511.04 1381.67 513.04 1380.55 515.28C1378.31 519.6 1372.07 521.76 1361.83 521.76C1350.47 521.76 1343.91 518.8 1342.15 512.88C1341.19 510.16 1340.71 506.08 1340.71 500.64V458.4C1340.71 451.84 1338.79 446.72 1334.95 443.04C1331.27 439.36 1326.23 437.52 1319.83 437.52C1313.59 437.52 1308.47 439.44 1304.47 443.28C1300.63 447.12 1298.71 452.16 1298.71 458.4V500.88C1298.71 504.56 1298.55 507.36 1298.23 509.28C1298.07 511.04 1297.35 513.04 1296.07 515.28C1293.99 519.6 1287.83 521.76 1277.59 521.76C1267.51 521.76 1261.35 519.6 1259.11 515.28C1257.99 512.88 1257.27 510.8 1256.95 509.04C1256.79 507.12 1256.71 504.32 1256.71 500.64V415.68C1256.71 412.16 1256.79 409.52 1256.95 407.76C1257.27 405.84 1258.07 403.76 1259.35 401.52C1261.59 397.52 1267.75 395.52 1277.83 395.52C1287.59 395.52 1293.59 397.36 1295.83 401.04C1297.43 403.76 1298.23 407.04 1298.23 410.88C1298.87 409.76 1300.31 408.16 1302.55 406.08C1304.79 404 1306.95 402.32 1309.03 401.04C1314.47 397.36 1320.47 395.52 1327.03 395.52ZM1482.42 506.16C1476.34 514.16 1466.66 518.16 1453.38 518.16C1440.1 518.16 1427.62 512.08 1415.94 499.92C1404.42 487.6 1398.66 473.28 1398.66 456.96C1398.66 440.64 1404.5 426.32 1416.18 414C1427.86 401.68 1440.66 395.52 1454.58 395.52C1460.02 395.52 1464.98 396.56 1469.46 398.64C1473.94 400.56 1476.98 402.4 1478.58 404.16C1480.34 405.76 1481.7 407.28 1482.66 408.72C1483.14 404.24 1484.74 400.88 1487.46 398.64C1490.34 396.24 1494.9 395.04 1501.14 395.04C1507.38 395.04 1511.94 395.52 1514.82 396.48C1517.7 397.44 1519.7 399.12 1520.82 401.52C1522.1 403.76 1522.82 405.76 1522.98 407.52C1523.3 409.28 1523.46 412 1523.46 415.68V515.04C1523.46 533.44 1517.06 548.24 1504.26 559.44C1491.46 570.8 1477.06 576.48 1461.06 576.48C1448.9 576.48 1437.3 573.52 1426.26 567.6C1415.22 561.68 1409.7 556.32 1409.7 551.52C1409.7 545.28 1412.1 539.76 1416.9 534.96C1419.94 531.6 1422.26 529.28 1423.86 528C1425.62 526.72 1427.62 526.08 1429.86 526.08C1432.1 526.08 1434.42 527.04 1436.82 528.96C1444.5 534.88 1452.82 537.84 1461.78 537.84C1467.86 537.84 1472.82 535.44 1476.66 530.64C1480.5 525.84 1482.42 520.08 1482.42 513.36V506.16ZM1439.7 457.2C1439.7 462.32 1441.7 466.96 1445.7 471.12C1449.86 475.28 1454.82 477.36 1460.58 477.36C1466.5 477.36 1471.38 475.28 1475.22 471.12C1479.06 466.8 1480.98 462.16 1480.98 457.2C1480.98 452.08 1479.14 447.36 1475.46 443.04C1471.78 438.56 1466.82 436.32 1460.58 436.32C1454.34 436.32 1449.3 438.48 1445.46 442.8C1441.62 447.12 1439.7 451.92 1439.7 457.2Z" fill="#1D4354"/>
<defs>
<linearGradient id="paint0_linear" x1="252.461" y1="61.5352" x2="490.996" y2="302.836" gradientUnits="userSpaceOnUse">
<stop stop-color="#72C94A"/>
<stop offset="1" stop-color="#41A000"/>
</linearGradient>
</defs>
</svg>
